<svg width="33" height="21" viewBox="0 0 33 21" fill="none" xmlns="http://www.w3.org/2000/svg">
<g clip-path="url(#clip0_1605_188)">
<path d="M7.31007 6.81793C7.62142 6.68215 7.95353 6.60973 8.2981 6.60973C9.80644 6.60973 11.0657 8.01102 11.3535 9.87397L13.4915 9.30368C13.0016 6.13902 10.8623 3.75647 8.2981 3.75647C7.70998 3.75647 7.14678 3.88139 6.61816 4.11313L7.31007 6.81793Z" fill="#FFCB05"/>
<path d="M4.78738 15.881L6.23346 13.7429C5.58861 12.9952 5.18177 11.9035 5.18177 10.6869C5.18177 9.47206 5.58861 8.38036 6.23346 7.63445L4.78738 5.49451C3.69141 6.76544 2.99951 8.62115 2.99951 10.6869C2.99951 12.7544 3.69141 14.6101 4.78738 15.881" fill="#00A4E0"/>
<path d="M11.3535 11.5052C11.0643 13.3664 9.80644 14.7659 8.29948 14.7659C7.95353 14.7659 7.62004 14.6934 7.31007 14.5559L6.61816 17.2643C7.14678 17.4942 7.71137 17.6191 8.29948 17.6191C10.8609 17.6191 12.9989 15.2402 13.4915 12.0792L11.3535 11.5052Z" fill="#EF4123"/>
<path d="M15.3609 13.8316C15.2903 13.6831 15.1962 13.4459 15.1381 13.2703C14.7991 12.242 14.7839 11.1775 15.0689 10.1564C15.383 9.03569 15.9836 8.17935 16.7599 7.74122C17.7355 7.19266 18.8135 7.29948 19.7489 8.02546C20.3426 8.47083 20.7633 9.1588 21.0829 10.1328C21.1231 10.2577 21.159 10.3899 21.195 10.504L15.3609 13.8316ZM17.3093 9.39416C16.616 9.78341 16.259 10.6343 16.3337 11.6301L19.2674 9.97713C18.7623 9.20226 18.1064 8.94517 17.3093 9.39416V9.39416ZM19.6327 12.9897C19.6313 12.9897 19.6313 12.9915 19.6313 12.9915L19.5704 12.9372C19.3947 13.3083 19.1221 13.6107 18.7775 13.8062C18.1216 14.1792 17.5141 14.0832 17.0768 13.5817L17.0367 13.6614C17.0367 13.6614 17.0367 13.6596 17.0353 13.6596L16.2908 15.117C16.4762 15.2854 16.6741 15.4266 16.8817 15.5406C17.7037 15.9878 18.545 15.9661 19.3739 15.4954C19.9731 15.155 20.4436 14.6372 20.7647 13.98L19.6327 12.9897ZM23.2334 5.59766V13.6976L24.1965 14.2081L23.6499 15.8774L22.5871 15.298C22.3491 15.1622 22.1858 14.9559 22.064 14.7223C21.9464 14.4851 21.8592 14.1574 21.8592 13.7193V5.59766H23.2334ZM25.727 11.6355C25.727 10.9457 25.9608 10.3265 26.3289 9.90652L25.3409 8.4654C24.6711 9.24027 24.2491 10.3718 24.2491 11.6319C24.2477 12.8938 24.6697 14.0271 25.3381 14.802L26.3248 13.3608C25.9581 12.939 25.727 12.3235 25.727 11.6355V11.6355ZM27.4816 13.933C27.2879 13.933 27.0997 13.8895 26.9253 13.8135L26.4535 15.6474C26.7759 15.7887 27.1205 15.8665 27.4802 15.8665C29.0439 15.8683 30.3489 14.4163 30.6519 12.4882L29.2017 12.1008C29.037 13.149 28.3299 13.9348 27.4816 13.933V13.933ZM27.4858 7.40448C27.1274 7.40448 26.7828 7.48052 26.4604 7.61992L26.9281 9.45572C27.1038 9.37968 27.2907 9.33804 27.4844 9.33804C28.334 9.33985 29.0426 10.1292 29.2031 11.1793L30.6533 10.7954C30.3558 8.8637 29.0509 7.40629 27.4858 7.40448V7.40448Z" fill="white"/>
</g>
<defs>
<clipPath id="clip0_1605_188">
<rect width="32.36" height="20" fill="white" transform="translate(0.640137 0.691406)"/>
</clipPath>
</defs>
</svg>


